<?xml version="1.0" encoding="UTF-8" standalone="no"?>
<!-- Created with Inkscape (http://www.inkscape.org/) -->

<svg
   width="210mm"
   height="297mm"
   viewBox="0 0 210 297"
   version="1.1"
   id="svg2288"
   inkscape:version="1.1 (c68e22c387, 2021-05-23)"
   sodipodi:docname="eyePupil.svg"
   xmlns:inkscape="http://www.inkscape.org/namespaces/inkscape"
   xmlns:sodipodi="http://sodipodi.sourceforge.net/DTD/sodipodi-0.dtd"
   xmlns="http://www.w3.org/2000/svg"
   xmlns:svg="http://www.w3.org/2000/svg">
  <sodipodi:namedview
     id="namedview2290"
     pagecolor="#505050"
     bordercolor="#ffffff"
     borderopacity="1"
     inkscape:pageshadow="0"
     inkscape:pageopacity="0"
     inkscape:pagecheckerboard="1"
     inkscape:document-units="mm"
     showgrid="false"
     inkscape:zoom="0.74118967"
     inkscape:cx="397.33419"
     inkscape:cy="561.93443"
     inkscape:window-width="1920"
     inkscape:window-height="1017"
     inkscape:window-x="-8"
     inkscape:window-y="-8"
     inkscape:window-maximized="1"
     inkscape:current-layer="layer1" />
  <defs
     id="defs2285" />
  <g
     inkscape:label="Layer 1"
     inkscape:groupmode="layer"
     id="layer1">
    <path
       id="path2522"
       style="fill:#800080;stroke-width:0.999999"
       d="M 396.84961 183.30664 A 377.95276 377.95276 0 0 0 18.898438 561.25977 A 377.95276 377.95276 0 0 0 396.84961 939.21289 A 377.95276 377.95276 0 0 0 774.80273 561.25977 A 377.95276 377.95276 0 0 0 396.84961 183.30664 z M 396.84961 312.86523 A 248.39491 248.39491 0 0 1 403.24609 312.94727 A 248.39491 248.39491 0 0 1 409.63672 313.19336 A 248.39491 248.39491 0 0 1 416.01953 313.60547 A 248.39491 248.39491 0 0 1 422.39062 314.18164 A 248.39491 248.39491 0 0 1 428.74414 314.92188 A 248.39491 248.39491 0 0 1 435.07617 315.82422 A 248.39491 248.39491 0 0 1 441.38281 316.88867 A 248.39491 248.39491 0 0 1 447.66016 318.11719 A 248.39491 248.39491 0 0 1 453.9043 319.50586 A 248.39491 248.39491 0 0 1 460.10938 321.05469 A 248.39491 248.39491 0 0 1 466.27344 322.76367 A 248.39491 248.39491 0 0 1 472.39062 324.63086 A 248.39491 248.39491 0 0 1 478.45898 326.6543 A 248.39491 248.39491 0 0 1 484.47266 328.83203 A 248.39491 248.39491 0 0 1 490.42773 331.16602 A 248.39491 248.39491 0 0 1 496.32031 333.65234 A 248.39491 248.39491 0 0 1 502.14844 336.28711 A 248.39491 248.39491 0 0 1 507.90625 339.07422 A 248.39491 248.39491 0 0 1 513.58984 342.00781 A 248.39491 248.39491 0 0 1 519.19727 345.08594 A 248.39491 248.39491 0 0 1 524.72266 348.30664 A 248.39491 248.39491 0 0 1 530.16211 351.66992 A 248.39491 248.39491 0 0 1 535.51562 355.17188 A 248.39491 248.39491 0 0 1 540.77539 358.81055 A 248.39491 248.39491 0 0 1 545.94141 362.58398 A 248.39491 248.39491 0 0 1 551.00586 366.48828 A 248.39491 248.39491 0 0 1 555.9707 370.52148 A 248.39491 248.39491 0 0 1 560.82812 374.68164 A 248.39491 248.39491 0 0 1 565.57812 378.9668 A 248.39491 248.39491 0 0 1 570.2168 383.37109 A 248.39491 248.39491 0 0 1 574.73828 387.89453 A 248.39491 248.39491 0 0 1 579.14453 392.53125 A 248.39491 248.39491 0 0 1 583.42773 397.28125 A 248.39491 248.39491 0 0 1 587.58789 402.14062 A 248.39491 248.39491 0 0 1 591.62109 407.10352 A 248.39491 248.39491 0 0 1 595.52734 412.16992 A 248.39491 248.39491 0 0 1 599.29883 417.33398 A 248.39491 248.39491 0 0 1 602.9375 422.5957 A 248.39491 248.39491 0 0 1 606.43945 427.94727 A 248.39491 248.39491 0 0 1 609.80273 433.38867 A 248.39491 248.39491 0 0 1 613.02539 438.91406 A 248.39491 248.39491 0 0 1 616.10352 444.51953 A 248.39491 248.39491 0 0 1 619.03711 450.20312 A 248.39491 248.39491 0 0 1 621.82227 455.96094 A 248.39491 248.39491 0 0 1 624.45898 461.78906 A 248.39491 248.39491 0 0 1 626.94531 467.68164 A 248.39491 248.39491 0 0 1 629.27734 473.63867 A 248.39491 248.39491 0 0 1 631.45703 479.65234 A 248.39491 248.39491 0 0 1 633.48047 485.71875 A 248.39491 248.39491 0 0 1 635.34766 491.83789 A 248.39491 248.39491 0 0 1 637.05469 498 A 248.39491 248.39491 0 0 1 638.60352 504.20703 A 248.39491 248.39491 0 0 1 639.99219 510.44922 A 248.39491 248.39491 0 0 1 641.2207 516.72656 A 248.39491 248.39491 0 0 1 642.28711 523.03516 A 248.39491 248.39491 0 0 1 643.18945 529.36719 A 248.39491 248.39491 0 0 1 643.92969 535.71875 A 248.39491 248.39491 0 0 1 644.50391 542.08984 A 248.39491 248.39491 0 0 1 644.91602 548.47266 A 248.39491 248.39491 0 0 1 645.16211 554.86328 A 248.39491 248.39491 0 0 1 645.24609 561.25977 A 248.39491 248.39491 0 0 1 644.55078 579.82227 A 248.39491 248.39491 0 0 1 642.4707 598.28125 A 248.39491 248.39491 0 0 1 639.01758 616.5332 A 248.39491 248.39491 0 0 1 634.20898 634.47461 A 248.39491 248.39491 0 0 1 628.07422 652.00781 A 248.39491 248.39491 0 0 1 620.64648 669.03516 A 248.39491 248.39491 0 0 1 611.9668 685.45703 A 248.39491 248.39491 0 0 1 602.08398 701.18555 A 248.39491 248.39491 0 0 1 591.05273 716.13086 A 248.39491 248.39491 0 0 1 578.9375 730.21094 A 248.39491 248.39491 0 0 1 565.80273 743.3457 A 248.39491 248.39491 0 0 1 551.72266 755.46289 A 248.39491 248.39491 0 0 1 536.77539 766.49414 A 248.39491 248.39491 0 0 1 521.04688 776.37695 A 248.39491 248.39491 0 0 1 504.625 785.05664 A 248.39491 248.39491 0 0 1 487.59961 792.48438 A 248.39491 248.39491 0 0 1 470.06641 798.61914 A 248.39491 248.39491 0 0 1 452.12305 803.42773 A 248.39491 248.39491 0 0 1 433.87109 806.88086 A 248.39491 248.39491 0 0 1 415.41211 808.96094 A 248.39491 248.39491 0 0 1 396.84961 809.6543 A 248.39491 248.39491 0 0 1 378.28711 808.96094 A 248.39491 248.39491 0 0 1 359.82812 806.88086 A 248.39491 248.39491 0 0 1 341.57812 803.42773 A 248.39491 248.39491 0 0 1 323.63477 798.61914 A 248.39491 248.39491 0 0 1 306.10156 792.48438 A 248.39491 248.39491 0 0 1 289.07617 785.05664 A 248.39491 248.39491 0 0 1 272.65234 776.37695 A 248.39491 248.39491 0 0 1 256.92383 766.49414 A 248.39491 248.39491 0 0 1 241.97852 755.46289 A 248.39491 248.39491 0 0 1 227.89844 743.3457 A 248.39491 248.39491 0 0 1 214.76367 730.21094 A 248.39491 248.39491 0 0 1 202.64648 716.13086 A 248.39491 248.39491 0 0 1 191.61719 701.18555 A 248.39491 248.39491 0 0 1 181.73438 685.45703 A 248.39491 248.39491 0 0 1 173.05469 669.03516 A 248.39491 248.39491 0 0 1 165.62695 652.00781 A 248.39491 248.39491 0 0 1 159.49023 634.47461 A 248.39491 248.39491 0 0 1 154.68359 616.5332 A 248.39491 248.39491 0 0 1 151.23047 598.28125 A 248.39491 248.39491 0 0 1 149.15039 579.82227 A 248.39491 248.39491 0 0 1 148.45508 561.25977 A 248.39491 248.39491 0 0 1 149.15039 542.69727 A 248.39491 248.39491 0 0 1 151.23047 524.23828 A 248.39491 248.39491 0 0 1 154.68359 505.98633 A 248.39491 248.39491 0 0 1 159.49023 488.04492 A 248.39491 248.39491 0 0 1 165.62695 470.51172 A 248.39491 248.39491 0 0 1 173.05469 453.48438 A 248.39491 248.39491 0 0 1 181.73438 437.0625 A 248.39491 248.39491 0 0 1 191.61719 421.33398 A 248.39491 248.39491 0 0 1 202.64648 406.38867 A 248.39491 248.39491 0 0 1 214.76367 392.30859 A 248.39491 248.39491 0 0 1 227.89844 379.17383 A 248.39491 248.39491 0 0 1 241.97852 367.05664 A 248.39491 248.39491 0 0 1 256.92383 356.02539 A 248.39491 248.39491 0 0 1 272.65234 346.14258 A 248.39491 248.39491 0 0 1 289.07617 337.46289 A 248.39491 248.39491 0 0 1 306.10156 330.03516 A 248.39491 248.39491 0 0 1 323.63477 323.90039 A 248.39491 248.39491 0 0 1 341.57812 319.0918 A 248.39491 248.39491 0 0 1 359.82812 315.63867 A 248.39491 248.39491 0 0 1 378.28711 313.55859 A 248.39491 248.39491 0 0 1 396.84961 312.86523 z "
       transform="scale(0.26458333)" />
  </g>
</svg>
